solid ASCII
  facet normal 0.000000e+00 -5.224986e-01 8.526402e-01
    outer loop
      vertex   2.000000e+01 0.000000e+00 4.587199e+01
      vertex   1.296000e+02 0.000000e+00 4.587199e+01
      vertex   2.000000e+01 2.000000e+00 4.709759e+01
    endloop
  endfacet
  facet normal 0.000000e+00 -5.224986e-01 8.526402e-01
    outer loop
      vertex   2.000000e+01 2.000000e+00 4.709759e+01
      vertex   1.296000e+02 0.000000e+00 4.587199e+01
      vertex   1.296000e+02 2.000000e+00 4.709759e+01
    endloop
  endfacet
  facet normal 0.000000e+00 -1.000000e+00 0.000000e+00
    outer loop
      vertex   2.000000e+01 0.000000e+00 4.587199e+01
      vertex   2.000000e+01 0.000000e+00 1.127199e+01
      vertex   1.296000e+02 0.000000e+00 4.587199e+01
    endloop
  endfacet
  facet normal 0.000000e+00 -1.000000e+00 -0.000000e+00
    outer loop
      vertex   1.296000e+02 0.000000e+00 4.587199e+01
      vertex   2.000000e+01 0.000000e+00 1.127199e+01
      vertex   1.296000e+02 0.000000e+00 1.127199e+01
    endloop
  endfacet
  facet normal -1.000000e+00 0.000000e+00 -0.000000e+00
    outer loop
      vertex   2.000000e+01 2.000000e+00 4.709759e+01
      vertex   2.000000e+01 2.000000e+00 1.127199e+01
      vertex   2.000000e+01 0.000000e+00 4.587199e+01
    endloop
  endfacet
  facet normal -1.000000e+00 0.000000e+00 0.000000e+00
    outer loop
      vertex   2.000000e+01 0.000000e+00 4.587199e+01
      vertex   2.000000e+01 2.000000e+00 1.127199e+01
      vertex   2.000000e+01 0.000000e+00 1.127199e+01
    endloop
  endfacet
  facet normal 1.000000e+00 0.000000e+00 0.000000e+00
    outer loop
      vertex   1.296000e+02 2.000000e+00 4.709759e+01
      vertex   1.296000e+02 0.000000e+00 4.587199e+01
      vertex   1.296000e+02 2.000000e+00 1.127199e+01
    endloop
  endfacet
  facet normal 1.000000e+00 0.000000e+00 0.000000e+00
    outer loop
      vertex   1.296000e+02 2.000000e+00 1.127199e+01
      vertex   1.296000e+02 0.000000e+00 4.587199e+01
      vertex   1.296000e+02 0.000000e+00 1.127199e+01
    endloop
  endfacet
  facet normal 0.000000e+00 0.000000e+00 -1.000000e+00
    outer loop
      vertex   2.000000e+01 2.000000e+00 1.127199e+01
      vertex   1.296000e+02 2.000000e+00 1.127199e+01
      vertex   2.000000e+01 0.000000e+00 1.127199e+01
    endloop
  endfacet
  facet normal 0.000000e+00 0.000000e+00 -1.000000e+00
    outer loop
      vertex   2.000000e+01 0.000000e+00 1.127199e+01
      vertex   1.296000e+02 2.000000e+00 1.127199e+01
      vertex   1.296000e+02 0.000000e+00 1.127199e+01
    endloop
  endfacet
  facet normal 0.000000e+00 1.000000e+00 0.000000e+00
    outer loop
      vertex   1.296000e+02 2.000000e+00 4.709759e+01
      vertex   1.296000e+02 2.000000e+00 1.127199e+01
      vertex   2.000000e+01 2.000000e+00 4.709759e+01
    endloop
  endfacet
  facet normal 0.000000e+00 1.000000e+00 0.000000e+00
    outer loop
      vertex   2.000000e+01 2.000000e+00 4.709759e+01
      vertex   1.296000e+02 2.000000e+00 1.127199e+01
      vertex   2.000000e+01 2.000000e+00 1.127199e+01
    endloop
  endfacet
endsolid
