solid ASCII
  facet normal 2.363607e-16 8.574929e-01 5.144958e-01
    outer loop
      vertex   1.257500e+01 4.500000e+00 2.250000e+00
      vertex   6.775000e+00 4.500000e+00 2.250000e+00
      vertex   1.207500e+01 4.200000e+00 2.750000e+00
    endloop
  endfacet
  facet normal 1.904017e-16 8.574929e-01 5.144958e-01
    outer loop
      vertex   1.207500e+01 4.200000e+00 2.750000e+00
      vertex   6.775000e+00 4.500000e+00 2.250000e+00
      vertex   7.275000e+00 4.200000e+00 2.750000e+00
    endloop
  endfacet
  facet normal 5.144958e-01 8.574929e-01 -3.046427e-16
    outer loop
      vertex   6.775000e+00 4.500000e+00 2.250000e+00
      vertex   6.775000e+00 4.500000e+00 5.250000e+00
      vertex   7.275000e+00 4.200000e+00 2.750000e+00
    endloop
  endfacet
  facet normal 5.144958e-01 8.574929e-01 -2.284820e-16
    outer loop
      vertex   7.275000e+00 4.200000e+00 2.750000e+00
      vertex   6.775000e+00 4.500000e+00 5.250000e+00
      vertex   7.275000e+00 4.200000e+00 4.750000e+00
    endloop
  endfacet
  facet normal -3.939345e-16 8.574929e-01 -5.144958e-01
    outer loop
      vertex   6.775000e+00 4.500000e+00 5.250000e+00
      vertex   1.257500e+01 4.500000e+00 5.250000e+00
      vertex   7.275000e+00 4.200000e+00 4.750000e+00
    endloop
  endfacet
  facet normal -3.808034e-16 8.574929e-01 -5.144958e-01
    outer loop
      vertex   7.275000e+00 4.200000e+00 4.750000e+00
      vertex   1.257500e+01 4.500000e+00 5.250000e+00
      vertex   1.207500e+01 4.200000e+00 4.750000e+00
    endloop
  endfacet
  facet normal -5.144958e-01 8.574929e-01 0.000000e+00
    outer loop
      vertex   1.207500e+01 4.200000e+00 2.750000e+00
      vertex   1.207500e+01 4.200000e+00 4.750000e+00
      vertex   1.257500e+01 4.500000e+00 2.250000e+00
    endloop
  endfacet
  facet normal -5.144958e-01 8.574929e-01 0.000000e+00
    outer loop
      vertex   1.257500e+01 4.500000e+00 2.250000e+00
      vertex   1.207500e+01 4.200000e+00 4.750000e+00
      vertex   1.257500e+01 4.500000e+00 5.250000e+00
    endloop
  endfacet
  facet normal -1.000000e+00 -0.000000e+00 -0.000000e+00
    outer loop
      vertex   1.207500e+01 4.200000e+00 4.750000e+00
      vertex   1.207500e+01 4.200000e+00 2.750000e+00
      vertex   1.207500e+01 1.500000e+00 4.750000e+00
    endloop
  endfacet
  facet normal -1.000000e+00 0.000000e+00 0.000000e+00
    outer loop
      vertex   1.207500e+01 1.500000e+00 4.750000e+00
      vertex   1.207500e+01 4.200000e+00 2.750000e+00
      vertex   1.207500e+01 1.500000e+00 2.750000e+00
    endloop
  endfacet
  facet normal 3.700743e-16 0.000000e+00 1.000000e+00
    outer loop
      vertex   1.207500e+01 4.200000e+00 2.750000e+00
      vertex   7.275000e+00 4.200000e+00 2.750000e+00
      vertex   1.207500e+01 1.500000e+00 2.750000e+00
    endloop
  endfacet
  facet normal 3.700743e-16 0.000000e+00 1.000000e+00
    outer loop
      vertex   1.207500e+01 1.500000e+00 2.750000e+00
      vertex   7.275000e+00 4.200000e+00 2.750000e+00
      vertex   7.275000e+00 1.500000e+00 2.750000e+00
    endloop
  endfacet
  facet normal 0.000000e+00 1.000000e+00 0.000000e+00
    outer loop
      vertex   -9.850162e-01 4.500000e+00 8.500000e+00
      vertex   6.775000e+00 4.500000e+00 2.250000e+00
      vertex   -9.850162e-01 4.500000e+00 -1.000000e+00
    endloop
  endfacet
  facet normal 0.000000e+00 1.000000e+00 0.000000e+00
    outer loop
      vertex   -9.850162e-01 4.500000e+00 -1.000000e+00
      vertex   6.775000e+00 4.500000e+00 2.250000e+00
      vertex   1.257500e+01 4.500000e+00 2.250000e+00
    endloop
  endfacet
  facet normal 0.000000e+00 1.000000e+00 0.000000e+00
    outer loop
      vertex   -9.850162e-01 4.500000e+00 -1.000000e+00
      vertex   1.257500e+01 4.500000e+00 2.250000e+00
      vertex   2.035000e+01 4.500000e+00 -1.000000e+00
    endloop
  endfacet
  facet normal 0.000000e+00 1.000000e+00 0.000000e+00
    outer loop
      vertex   2.035000e+01 4.500000e+00 -1.000000e+00
      vertex   1.257500e+01 4.500000e+00 2.250000e+00
      vertex   1.257500e+01 4.500000e+00 5.250000e+00
    endloop
  endfacet
  facet normal 0.000000e+00 1.000000e+00 -0.000000e+00
    outer loop
      vertex   2.035000e+01 4.500000e+00 -1.000000e+00
      vertex   1.257500e+01 4.500000e+00 5.250000e+00
      vertex   2.035000e+01 4.500000e+00 8.500000e+00
    endloop
  endfacet
  facet normal 0.000000e+00 1.000000e+00 0.000000e+00
    outer loop
      vertex   2.035000e+01 4.500000e+00 8.500000e+00
      vertex   1.257500e+01 4.500000e+00 5.250000e+00
      vertex   -9.850162e-01 4.500000e+00 8.500000e+00
    endloop
  endfacet
  facet normal 0.000000e+00 1.000000e+00 0.000000e+00
    outer loop
      vertex   -9.850162e-01 4.500000e+00 8.500000e+00
      vertex   1.257500e+01 4.500000e+00 5.250000e+00
      vertex   6.775000e+00 4.500000e+00 5.250000e+00
    endloop
  endfacet
  facet normal 0.000000e+00 1.000000e+00 0.000000e+00
    outer loop
      vertex   -9.850162e-01 4.500000e+00 8.500000e+00
      vertex   6.775000e+00 4.500000e+00 5.250000e+00
      vertex   6.775000e+00 4.500000e+00 2.250000e+00
    endloop
  endfacet
  facet normal 0.000000e+00 -7.071068e-01 7.071068e-01
    outer loop
      vertex   7.500000e-01 0.000000e+00 6.750000e+00
      vertex   1.860000e+01 0.000000e+00 6.750000e+00
      vertex   2.696302e-32 7.500000e-01 7.500000e+00
    endloop
  endfacet
  facet normal 0.000000e+00 -7.071068e-01 7.071068e-01
    outer loop
      vertex   2.696302e-32 7.500000e-01 7.500000e+00
      vertex   1.860000e+01 0.000000e+00 6.750000e+00
      vertex   1.935000e+01 7.500000e-01 7.500000e+00
    endloop
  endfacet
  facet normal 7.071068e-01 -7.071068e-01 0.000000e+00
    outer loop
      vertex   1.860000e+01 0.000000e+00 6.750000e+00
      vertex   1.860000e+01 0.000000e+00 7.500000e-01
      vertex   1.935000e+01 7.500000e-01 7.500000e+00
    endloop
  endfacet
  facet normal 7.071068e-01 -7.071068e-01 0.000000e+00
    outer loop
      vertex   1.935000e+01 7.500000e-01 7.500000e+00
      vertex   1.860000e+01 0.000000e+00 7.500000e-01
      vertex   1.935000e+01 7.500000e-01 0.000000e+00
    endloop
  endfacet
  facet normal 0.000000e+00 -7.071068e-01 -7.071068e-01
    outer loop
      vertex   0.000000e+00 7.500000e-01 0.000000e+00
      vertex   1.935000e+01 7.500000e-01 0.000000e+00
      vertex   7.500000e-01 0.000000e+00 7.500000e-01
    endloop
  endfacet
  facet normal 0.000000e+00 -7.071068e-01 -7.071068e-01
    outer loop
      vertex   7.500000e-01 0.000000e+00 7.500000e-01
      vertex   1.935000e+01 7.500000e-01 0.000000e+00
      vertex   1.860000e+01 0.000000e+00 7.500000e-01
    endloop
  endfacet
  facet normal -7.071068e-01 -7.071068e-01 0.000000e+00
    outer loop
      vertex   7.500000e-01 0.000000e+00 7.500000e-01
      vertex   7.500000e-01 0.000000e+00 6.750000e+00
      vertex   0.000000e+00 7.500000e-01 0.000000e+00
    endloop
  endfacet
  facet normal -7.071068e-01 -7.071068e-01 2.542098e-33
    outer loop
      vertex   0.000000e+00 7.500000e-01 0.000000e+00
      vertex   7.500000e-01 0.000000e+00 6.750000e+00
      vertex   2.696302e-32 7.500000e-01 7.500000e+00
    endloop
  endfacet
  facet normal -1.000000e+00 0.000000e+00 3.595069e-33
    outer loop
      vertex   0.000000e+00 7.500000e-01 0.000000e+00
      vertex   2.696302e-32 7.500000e-01 7.500000e+00
      vertex   0.000000e+00 3.500000e+00 0.000000e+00
    endloop
  endfacet
  facet normal -1.000000e+00 -9.804734e-33 0.000000e+00
    outer loop
      vertex   0.000000e+00 3.500000e+00 0.000000e+00
      vertex   2.696302e-32 7.500000e-01 7.500000e+00
      vertex   0.000000e+00 3.500000e+00 7.500000e+00
    endloop
  endfacet
  facet normal 0.000000e+00 -0.000000e+00 1.000000e+00
    outer loop
      vertex   2.696302e-32 7.500000e-01 7.500000e+00
      vertex   1.935000e+01 7.500000e-01 7.500000e+00
      vertex   0.000000e+00 3.500000e+00 7.500000e+00
    endloop
  endfacet
  facet normal -0.000000e+00 0.000000e+00 1.000000e+00
    outer loop
      vertex   0.000000e+00 3.500000e+00 7.500000e+00
      vertex   1.935000e+01 7.500000e-01 7.500000e+00
      vertex   1.935000e+01 3.500000e+00 7.500000e+00
    endloop
  endfacet
  facet normal -0.000000e+00 -1.000000e+00 -0.000000e+00
    outer loop
      vertex   1.860000e+01 0.000000e+00 6.750000e+00
      vertex   7.500000e-01 0.000000e+00 6.750000e+00
      vertex   1.860000e+01 0.000000e+00 7.500000e-01
    endloop
  endfacet
  facet normal 0.000000e+00 -1.000000e+00 0.000000e+00
    outer loop
      vertex   1.860000e+01 0.000000e+00 7.500000e-01
      vertex   7.500000e-01 0.000000e+00 6.750000e+00
      vertex   7.500000e-01 0.000000e+00 7.500000e-01
    endloop
  endfacet
  facet normal -4.440892e-16 -1.000000e+00 0.000000e+00
    outer loop
      vertex   2.035000e+01 3.500000e+00 -1.000000e+00
      vertex   2.035000e+01 3.500000e+00 8.500000e+00
      vertex   1.935000e+01 3.500000e+00 7.500000e+00
    endloop
  endfacet
  facet normal 0.000000e+00 -1.000000e+00 -4.440892e-16
    outer loop
      vertex   1.935000e+01 3.500000e+00 7.500000e+00
      vertex   2.035000e+01 3.500000e+00 8.500000e+00
      vertex   -9.850162e-01 3.500000e+00 8.500000e+00
    endloop
  endfacet
  facet normal -0.000000e+00 -1.000000e+00 -4.440892e-16
    outer loop
      vertex   1.935000e+01 3.500000e+00 7.500000e+00
      vertex   -9.850162e-01 3.500000e+00 8.500000e+00
      vertex   0.000000e+00 3.500000e+00 7.500000e+00
    endloop
  endfacet
  facet normal 4.508446e-16 -1.000000e+00 0.000000e+00
    outer loop
      vertex   0.000000e+00 3.500000e+00 7.500000e+00
      vertex   -9.850162e-01 3.500000e+00 8.500000e+00
      vertex   -9.850162e-01 3.500000e+00 -1.000000e+00
    endloop
  endfacet
  facet normal 4.508446e-16 -1.000000e+00 0.000000e+00
    outer loop
      vertex   0.000000e+00 3.500000e+00 7.500000e+00
      vertex   -9.850162e-01 3.500000e+00 -1.000000e+00
      vertex   0.000000e+00 3.500000e+00 0.000000e+00
    endloop
  endfacet
  facet normal 0.000000e+00 -1.000000e+00 4.440892e-16
    outer loop
      vertex   0.000000e+00 3.500000e+00 0.000000e+00
      vertex   -9.850162e-01 3.500000e+00 -1.000000e+00
      vertex   1.935000e+01 3.500000e+00 0.000000e+00
    endloop
  endfacet
  facet normal 0.000000e+00 -1.000000e+00 4.440892e-16
    outer loop
      vertex   1.935000e+01 3.500000e+00 0.000000e+00
      vertex   -9.850162e-01 3.500000e+00 -1.000000e+00
      vertex   2.035000e+01 3.500000e+00 -1.000000e+00
    endloop
  endfacet
  facet normal -4.440892e-16 -1.000000e+00 0.000000e+00
    outer loop
      vertex   1.935000e+01 3.500000e+00 0.000000e+00
      vertex   2.035000e+01 3.500000e+00 -1.000000e+00
      vertex   1.935000e+01 3.500000e+00 7.500000e+00
    endloop
  endfacet
  facet normal 1.000000e+00 0.000000e+00 -0.000000e+00
    outer loop
      vertex   2.035000e+01 4.500000e+00 -1.000000e+00
      vertex   2.035000e+01 4.500000e+00 8.500000e+00
      vertex   2.035000e+01 3.500000e+00 -1.000000e+00
    endloop
  endfacet
  facet normal 1.000000e+00 0.000000e+00 0.000000e+00
    outer loop
      vertex   2.035000e+01 3.500000e+00 -1.000000e+00
      vertex   2.035000e+01 4.500000e+00 8.500000e+00
      vertex   2.035000e+01 3.500000e+00 8.500000e+00
    endloop
  endfacet
  facet normal 0.000000e+00 0.000000e+00 1.000000e+00
    outer loop
      vertex   2.035000e+01 4.500000e+00 8.500000e+00
      vertex   -9.850162e-01 4.500000e+00 8.500000e+00
      vertex   2.035000e+01 3.500000e+00 8.500000e+00
    endloop
  endfacet
  facet normal 0.000000e+00 0.000000e+00 1.000000e+00
    outer loop
      vertex   2.035000e+01 3.500000e+00 8.500000e+00
      vertex   -9.850162e-01 4.500000e+00 8.500000e+00
      vertex   -9.850162e-01 3.500000e+00 8.500000e+00
    endloop
  endfacet
  facet normal -1.000000e+00 -0.000000e+00 -0.000000e+00
    outer loop
      vertex   -9.850162e-01 4.500000e+00 8.500000e+00
      vertex   -9.850162e-01 4.500000e+00 -1.000000e+00
      vertex   -9.850162e-01 3.500000e+00 8.500000e+00
    endloop
  endfacet
  facet normal -1.000000e+00 0.000000e+00 0.000000e+00
    outer loop
      vertex   -9.850162e-01 3.500000e+00 8.500000e+00
      vertex   -9.850162e-01 4.500000e+00 -1.000000e+00
      vertex   -9.850162e-01 3.500000e+00 -1.000000e+00
    endloop
  endfacet
  facet normal 0.000000e+00 0.000000e+00 -1.000000e+00
    outer loop
      vertex   -9.850162e-01 4.500000e+00 -1.000000e+00
      vertex   2.035000e+01 4.500000e+00 -1.000000e+00
      vertex   -9.850162e-01 3.500000e+00 -1.000000e+00
    endloop
  endfacet
  facet normal 0.000000e+00 0.000000e+00 -1.000000e+00
    outer loop
      vertex   -9.850162e-01 3.500000e+00 -1.000000e+00
      vertex   2.035000e+01 4.500000e+00 -1.000000e+00
      vertex   2.035000e+01 3.500000e+00 -1.000000e+00
    endloop
  endfacet
  facet normal 1.000000e+00 0.000000e+00 -4.440892e-16
    outer loop
      vertex   7.275000e+00 4.200000e+00 2.750000e+00
      vertex   7.275000e+00 4.200000e+00 4.750000e+00
      vertex   7.275000e+00 1.500000e+00 2.750000e+00
    endloop
  endfacet
  facet normal 1.000000e+00 0.000000e+00 -4.440892e-16
    outer loop
      vertex   7.275000e+00 1.500000e+00 2.750000e+00
      vertex   7.275000e+00 4.200000e+00 4.750000e+00
      vertex   7.275000e+00 1.500000e+00 4.750000e+00
    endloop
  endfacet
  facet normal -7.401487e-16 -0.000000e+00 -1.000000e+00
    outer loop
      vertex   7.275000e+00 4.200000e+00 4.750000e+00
      vertex   1.207500e+01 4.200000e+00 4.750000e+00
      vertex   7.275000e+00 1.500000e+00 4.750000e+00
    endloop
  endfacet
  facet normal -7.401487e-16 0.000000e+00 -1.000000e+00
    outer loop
      vertex   7.275000e+00 1.500000e+00 4.750000e+00
      vertex   1.207500e+01 4.200000e+00 4.750000e+00
      vertex   1.207500e+01 1.500000e+00 4.750000e+00
    endloop
  endfacet
  facet normal 0.000000e+00 0.000000e+00 -1.000000e+00
    outer loop
      vertex   1.935000e+01 7.500000e-01 0.000000e+00
      vertex   0.000000e+00 7.500000e-01 0.000000e+00
      vertex   1.935000e+01 3.500000e+00 0.000000e+00
    endloop
  endfacet
  facet normal -0.000000e+00 0.000000e+00 -1.000000e+00
    outer loop
      vertex   1.935000e+01 3.500000e+00 0.000000e+00
      vertex   0.000000e+00 7.500000e-01 0.000000e+00
      vertex   0.000000e+00 3.500000e+00 0.000000e+00
    endloop
  endfacet
  facet normal 1.000000e+00 -0.000000e+00 0.000000e+00
    outer loop
      vertex   1.935000e+01 7.500000e-01 7.500000e+00
      vertex   1.935000e+01 7.500000e-01 0.000000e+00
      vertex   1.935000e+01 3.500000e+00 7.500000e+00
    endloop
  endfacet
  facet normal 1.000000e+00 0.000000e+00 0.000000e+00
    outer loop
      vertex   1.935000e+01 3.500000e+00 7.500000e+00
      vertex   1.935000e+01 7.500000e-01 0.000000e+00
      vertex   1.935000e+01 3.500000e+00 0.000000e+00
    endloop
  endfacet
  facet normal 0.000000e+00 1.000000e+00 0.000000e+00
    outer loop
      vertex   1.207500e+01 1.500000e+00 4.750000e+00
      vertex   1.207500e+01 1.500000e+00 2.750000e+00
      vertex   7.275000e+00 1.500000e+00 4.750000e+00
    endloop
  endfacet
  facet normal 0.000000e+00 1.000000e+00 0.000000e+00
    outer loop
      vertex   7.275000e+00 1.500000e+00 4.750000e+00
      vertex   1.207500e+01 1.500000e+00 2.750000e+00
      vertex   7.275000e+00 1.500000e+00 2.750000e+00
    endloop
  endfacet
endsolid
