solid ASCII
  facet normal 2.297696e-16 7.071068e-01 7.071068e-01
    outer loop
      vertex   5.800000e+00 4.500000e+00 2.500000e+00
      vertex   1.700000e+00 4.500000e+00 2.500000e+00
      vertex   5.550000e+00 4.250000e+00 2.750000e+00
    endloop
  endfacet
  facet normal 2.616821e-16 7.071068e-01 7.071068e-01
    outer loop
      vertex   5.550000e+00 4.250000e+00 2.750000e+00
      vertex   1.700000e+00 4.500000e+00 2.500000e+00
      vertex   1.950000e+00 4.250000e+00 2.750000e+00
    endloop
  endfacet
  facet normal 7.071068e-01 7.071068e-01 2.512148e-16
    outer loop
      vertex   1.700000e+00 4.500000e+00 2.500000e+00
      vertex   1.700000e+00 4.500000e+00 5.000000e+00
      vertex   1.950000e+00 4.250000e+00 2.750000e+00
    endloop
  endfacet
  facet normal 7.071068e-01 7.071068e-01 2.355139e-16
    outer loop
      vertex   1.950000e+00 4.250000e+00 2.750000e+00
      vertex   1.700000e+00 4.500000e+00 5.000000e+00
      vertex   1.950000e+00 4.250000e+00 4.750000e+00
    endloop
  endfacet
  facet normal -3.063595e-16 7.071068e-01 -7.071068e-01
    outer loop
      vertex   1.700000e+00 4.500000e+00 5.000000e+00
      vertex   5.800000e+00 4.500000e+00 5.000000e+00
      vertex   1.950000e+00 4.250000e+00 4.750000e+00
    endloop
  endfacet
  facet normal -3.489094e-16 7.071068e-01 -7.071068e-01
    outer loop
      vertex   1.950000e+00 4.250000e+00 4.750000e+00
      vertex   5.800000e+00 4.500000e+00 5.000000e+00
      vertex   5.550000e+00 4.250000e+00 4.750000e+00
    endloop
  endfacet
  facet normal -7.071068e-01 7.071068e-01 3.140185e-16
    outer loop
      vertex   5.550000e+00 4.250000e+00 2.750000e+00
      vertex   5.550000e+00 4.250000e+00 4.750000e+00
      vertex   5.800000e+00 4.500000e+00 2.500000e+00
    endloop
  endfacet
  facet normal -7.071068e-01 7.071068e-01 2.512148e-16
    outer loop
      vertex   5.800000e+00 4.500000e+00 2.500000e+00
      vertex   5.550000e+00 4.250000e+00 4.750000e+00
      vertex   5.800000e+00 4.500000e+00 5.000000e+00
    endloop
  endfacet
  facet normal -1.000000e+00 0.000000e+00 4.440892e-16
    outer loop
      vertex   5.550000e+00 4.250000e+00 4.750000e+00
      vertex   5.550000e+00 4.250000e+00 2.750000e+00
      vertex   5.550000e+00 1.500000e+00 4.750000e+00
    endloop
  endfacet
  facet normal -1.000000e+00 0.000000e+00 4.440892e-16
    outer loop
      vertex   5.550000e+00 1.500000e+00 4.750000e+00
      vertex   5.550000e+00 4.250000e+00 2.750000e+00
      vertex   5.550000e+00 1.500000e+00 2.750000e+00
    endloop
  endfacet
  facet normal 3.700743e-16 0.000000e+00 1.000000e+00
    outer loop
      vertex   5.550000e+00 4.250000e+00 2.750000e+00
      vertex   1.950000e+00 4.250000e+00 2.750000e+00
      vertex   5.550000e+00 1.500000e+00 2.750000e+00
    endloop
  endfacet
  facet normal 3.700743e-16 0.000000e+00 1.000000e+00
    outer loop
      vertex   5.550000e+00 1.500000e+00 2.750000e+00
      vertex   1.950000e+00 4.250000e+00 2.750000e+00
      vertex   1.950000e+00 1.500000e+00 2.750000e+00
    endloop
  endfacet
  facet normal -0.000000e+00 1.000000e+00 0.000000e+00
    outer loop
      vertex   -1.000000e+00 4.500000e+00 8.500000e+00
      vertex   8.500000e+00 4.500000e+00 8.500000e+00
      vertex   5.800000e+00 4.500000e+00 5.000000e+00
    endloop
  endfacet
  facet normal -0.000000e+00 1.000000e+00 0.000000e+00
    outer loop
      vertex   5.800000e+00 4.500000e+00 5.000000e+00
      vertex   8.500000e+00 4.500000e+00 8.500000e+00
      vertex   8.500000e+00 4.500000e+00 -1.000000e+00
    endloop
  endfacet
  facet normal 0.000000e+00 1.000000e+00 0.000000e+00
    outer loop
      vertex   5.800000e+00 4.500000e+00 5.000000e+00
      vertex   8.500000e+00 4.500000e+00 -1.000000e+00
      vertex   5.800000e+00 4.500000e+00 2.500000e+00
    endloop
  endfacet
  facet normal 0.000000e+00 1.000000e+00 0.000000e+00
    outer loop
      vertex   5.800000e+00 4.500000e+00 2.500000e+00
      vertex   8.500000e+00 4.500000e+00 -1.000000e+00
      vertex   -1.000000e+00 4.500000e+00 -1.000000e+00
    endloop
  endfacet
  facet normal 0.000000e+00 1.000000e+00 0.000000e+00
    outer loop
      vertex   5.800000e+00 4.500000e+00 2.500000e+00
      vertex   -1.000000e+00 4.500000e+00 -1.000000e+00
      vertex   1.700000e+00 4.500000e+00 2.500000e+00
    endloop
  endfacet
  facet normal 0.000000e+00 1.000000e+00 0.000000e+00
    outer loop
      vertex   1.700000e+00 4.500000e+00 2.500000e+00
      vertex   -1.000000e+00 4.500000e+00 -1.000000e+00
      vertex   -1.000000e+00 4.500000e+00 8.500000e+00
    endloop
  endfacet
  facet normal 0.000000e+00 1.000000e+00 0.000000e+00
    outer loop
      vertex   1.700000e+00 4.500000e+00 2.500000e+00
      vertex   -1.000000e+00 4.500000e+00 8.500000e+00
      vertex   1.700000e+00 4.500000e+00 5.000000e+00
    endloop
  endfacet
  facet normal -0.000000e+00 1.000000e+00 -0.000000e+00
    outer loop
      vertex   1.700000e+00 4.500000e+00 5.000000e+00
      vertex   -1.000000e+00 4.500000e+00 8.500000e+00
      vertex   5.800000e+00 4.500000e+00 5.000000e+00
    endloop
  endfacet
  facet normal -7.265824e-32 -1.000000e+00 4.440892e-16
    outer loop
      vertex   8.500000e+00 3.500000e+00 -1.000000e+00
      vertex   0.000000e+00 3.500000e+00 0.000000e+00
      vertex   -1.000000e+00 3.500000e+00 -1.000000e+00
    endloop
  endfacet
  facet normal 4.440892e-16 -1.000000e+00 0.000000e+00
    outer loop
      vertex   -1.000000e+00 3.500000e+00 -1.000000e+00
      vertex   0.000000e+00 3.500000e+00 0.000000e+00
      vertex   0.000000e+00 3.500000e+00 7.500000e+00
    endloop
  endfacet
  facet normal 4.440892e-16 -1.000000e+00 -2.075950e-32
    outer loop
      vertex   -1.000000e+00 3.500000e+00 -1.000000e+00
      vertex   0.000000e+00 3.500000e+00 7.500000e+00
      vertex   -1.000000e+00 3.500000e+00 8.500000e+00
    endloop
  endfacet
  facet normal 0.000000e+00 -1.000000e+00 -4.440892e-16
    outer loop
      vertex   -1.000000e+00 3.500000e+00 8.500000e+00
      vertex   0.000000e+00 3.500000e+00 7.500000e+00
      vertex   7.500000e+00 3.500000e+00 7.500000e+00
    endloop
  endfacet
  facet normal 0.000000e+00 -1.000000e+00 -4.440892e-16
    outer loop
      vertex   -1.000000e+00 3.500000e+00 8.500000e+00
      vertex   7.500000e+00 3.500000e+00 7.500000e+00
      vertex   8.500000e+00 3.500000e+00 8.500000e+00
    endloop
  endfacet
  facet normal -4.440892e-16 -1.000000e+00 -0.000000e+00
    outer loop
      vertex   8.500000e+00 3.500000e+00 8.500000e+00
      vertex   7.500000e+00 3.500000e+00 7.500000e+00
      vertex   8.500000e+00 3.500000e+00 -1.000000e+00
    endloop
  endfacet
  facet normal -4.440892e-16 -1.000000e+00 0.000000e+00
    outer loop
      vertex   8.500000e+00 3.500000e+00 -1.000000e+00
      vertex   7.500000e+00 3.500000e+00 7.500000e+00
      vertex   7.500000e+00 3.500000e+00 0.000000e+00
    endloop
  endfacet
  facet normal 0.000000e+00 -1.000000e+00 4.440892e-16
    outer loop
      vertex   8.500000e+00 3.500000e+00 -1.000000e+00
      vertex   7.500000e+00 3.500000e+00 0.000000e+00
      vertex   0.000000e+00 3.500000e+00 0.000000e+00
    endloop
  endfacet
  facet normal -1.000000e+00 0.000000e+00 4.674623e-17
    outer loop
      vertex   -1.000000e+00 4.500000e+00 8.500000e+00
      vertex   -1.000000e+00 4.500000e+00 -1.000000e+00
      vertex   -1.000000e+00 3.500000e+00 8.500000e+00
    endloop
  endfacet
  facet normal -1.000000e+00 0.000000e+00 4.674623e-17
    outer loop
      vertex   -1.000000e+00 3.500000e+00 8.500000e+00
      vertex   -1.000000e+00 4.500000e+00 -1.000000e+00
      vertex   -1.000000e+00 3.500000e+00 -1.000000e+00
    endloop
  endfacet
  facet normal 1.636118e-16 0.000000e+00 -1.000000e+00
    outer loop
      vertex   -1.000000e+00 4.500000e+00 -1.000000e+00
      vertex   8.500000e+00 4.500000e+00 -1.000000e+00
      vertex   -1.000000e+00 3.500000e+00 -1.000000e+00
    endloop
  endfacet
  facet normal 1.636118e-16 0.000000e+00 -1.000000e+00
    outer loop
      vertex   -1.000000e+00 3.500000e+00 -1.000000e+00
      vertex   8.500000e+00 4.500000e+00 -1.000000e+00
      vertex   8.500000e+00 3.500000e+00 -1.000000e+00
    endloop
  endfacet
  facet normal 1.000000e+00 0.000000e+00 -0.000000e+00
    outer loop
      vertex   8.500000e+00 4.500000e+00 -1.000000e+00
      vertex   8.500000e+00 4.500000e+00 8.500000e+00
      vertex   8.500000e+00 3.500000e+00 -1.000000e+00
    endloop
  endfacet
  facet normal 1.000000e+00 0.000000e+00 0.000000e+00
    outer loop
      vertex   8.500000e+00 3.500000e+00 -1.000000e+00
      vertex   8.500000e+00 4.500000e+00 8.500000e+00
      vertex   8.500000e+00 3.500000e+00 8.500000e+00
    endloop
  endfacet
  facet normal 0.000000e+00 0.000000e+00 1.000000e+00
    outer loop
      vertex   8.500000e+00 4.500000e+00 8.500000e+00
      vertex   -1.000000e+00 4.500000e+00 8.500000e+00
      vertex   8.500000e+00 3.500000e+00 8.500000e+00
    endloop
  endfacet
  facet normal 0.000000e+00 0.000000e+00 1.000000e+00
    outer loop
      vertex   8.500000e+00 3.500000e+00 8.500000e+00
      vertex   -1.000000e+00 4.500000e+00 8.500000e+00
      vertex   -1.000000e+00 3.500000e+00 8.500000e+00
    endloop
  endfacet
  facet normal 0.000000e+00 -7.071068e-01 7.071068e-01
    outer loop
      vertex   7.500000e-01 0.000000e+00 6.750000e+00
      vertex   6.750000e+00 0.000000e+00 6.750000e+00
      vertex   2.696302e-32 7.500000e-01 7.500000e+00
    endloop
  endfacet
  facet normal 0.000000e+00 -7.071068e-01 7.071068e-01
    outer loop
      vertex   2.696302e-32 7.500000e-01 7.500000e+00
      vertex   6.750000e+00 0.000000e+00 6.750000e+00
      vertex   7.500000e+00 7.500000e-01 7.500000e+00
    endloop
  endfacet
  facet normal 7.071068e-01 -7.071068e-01 0.000000e+00
    outer loop
      vertex   6.750000e+00 0.000000e+00 6.750000e+00
      vertex   6.750000e+00 0.000000e+00 7.500000e-01
      vertex   7.500000e+00 7.500000e-01 7.500000e+00
    endloop
  endfacet
  facet normal 7.071068e-01 -7.071068e-01 0.000000e+00
    outer loop
      vertex   7.500000e+00 7.500000e-01 7.500000e+00
      vertex   6.750000e+00 0.000000e+00 7.500000e-01
      vertex   7.500000e+00 7.500000e-01 0.000000e+00
    endloop
  endfacet
  facet normal 0.000000e+00 -7.071068e-01 -7.071068e-01
    outer loop
      vertex   0.000000e+00 7.500000e-01 0.000000e+00
      vertex   7.500000e+00 7.500000e-01 0.000000e+00
      vertex   7.500000e-01 0.000000e+00 7.500000e-01
    endloop
  endfacet
  facet normal 0.000000e+00 -7.071068e-01 -7.071068e-01
    outer loop
      vertex   7.500000e-01 0.000000e+00 7.500000e-01
      vertex   7.500000e+00 7.500000e-01 0.000000e+00
      vertex   6.750000e+00 0.000000e+00 7.500000e-01
    endloop
  endfacet
  facet normal -7.071068e-01 -7.071068e-01 0.000000e+00
    outer loop
      vertex   7.500000e-01 0.000000e+00 7.500000e-01
      vertex   7.500000e-01 0.000000e+00 6.750000e+00
      vertex   0.000000e+00 7.500000e-01 0.000000e+00
    endloop
  endfacet
  facet normal -7.071068e-01 -7.071068e-01 2.542098e-33
    outer loop
      vertex   0.000000e+00 7.500000e-01 0.000000e+00
      vertex   7.500000e-01 0.000000e+00 6.750000e+00
      vertex   2.696302e-32 7.500000e-01 7.500000e+00
    endloop
  endfacet
  facet normal -1.000000e+00 0.000000e+00 3.595069e-33
    outer loop
      vertex   0.000000e+00 7.500000e-01 0.000000e+00
      vertex   2.696302e-32 7.500000e-01 7.500000e+00
      vertex   0.000000e+00 3.500000e+00 0.000000e+00
    endloop
  endfacet
  facet normal -1.000000e+00 -9.804734e-33 0.000000e+00
    outer loop
      vertex   0.000000e+00 3.500000e+00 0.000000e+00
      vertex   2.696302e-32 7.500000e-01 7.500000e+00
      vertex   0.000000e+00 3.500000e+00 7.500000e+00
    endloop
  endfacet
  facet normal 0.000000e+00 -0.000000e+00 1.000000e+00
    outer loop
      vertex   2.696302e-32 7.500000e-01 7.500000e+00
      vertex   7.500000e+00 7.500000e-01 7.500000e+00
      vertex   0.000000e+00 3.500000e+00 7.500000e+00
    endloop
  endfacet
  facet normal -0.000000e+00 0.000000e+00 1.000000e+00
    outer loop
      vertex   0.000000e+00 3.500000e+00 7.500000e+00
      vertex   7.500000e+00 7.500000e-01 7.500000e+00
      vertex   7.500000e+00 3.500000e+00 7.500000e+00
    endloop
  endfacet
  facet normal -0.000000e+00 -1.000000e+00 -0.000000e+00
    outer loop
      vertex   6.750000e+00 0.000000e+00 6.750000e+00
      vertex   7.500000e-01 0.000000e+00 6.750000e+00
      vertex   6.750000e+00 0.000000e+00 7.500000e-01
    endloop
  endfacet
  facet normal 0.000000e+00 -1.000000e+00 0.000000e+00
    outer loop
      vertex   6.750000e+00 0.000000e+00 7.500000e-01
      vertex   7.500000e-01 0.000000e+00 6.750000e+00
      vertex   7.500000e-01 0.000000e+00 7.500000e-01
    endloop
  endfacet
  facet normal 1.000000e+00 0.000000e+00 3.330669e-16
    outer loop
      vertex   1.950000e+00 4.250000e+00 2.750000e+00
      vertex   1.950000e+00 4.250000e+00 4.750000e+00
      vertex   1.950000e+00 1.500000e+00 2.750000e+00
    endloop
  endfacet
  facet normal 1.000000e+00 0.000000e+00 3.330669e-16
    outer loop
      vertex   1.950000e+00 1.500000e+00 2.750000e+00
      vertex   1.950000e+00 4.250000e+00 4.750000e+00
      vertex   1.950000e+00 1.500000e+00 4.750000e+00
    endloop
  endfacet
  facet normal -4.934325e-16 -0.000000e+00 -1.000000e+00
    outer loop
      vertex   1.950000e+00 4.250000e+00 4.750000e+00
      vertex   5.550000e+00 4.250000e+00 4.750000e+00
      vertex   1.950000e+00 1.500000e+00 4.750000e+00
    endloop
  endfacet
  facet normal -4.934325e-16 0.000000e+00 -1.000000e+00
    outer loop
      vertex   1.950000e+00 1.500000e+00 4.750000e+00
      vertex   5.550000e+00 4.250000e+00 4.750000e+00
      vertex   5.550000e+00 1.500000e+00 4.750000e+00
    endloop
  endfacet
  facet normal 0.000000e+00 0.000000e+00 -1.000000e+00
    outer loop
      vertex   7.500000e+00 7.500000e-01 0.000000e+00
      vertex   0.000000e+00 7.500000e-01 0.000000e+00
      vertex   7.500000e+00 3.500000e+00 0.000000e+00
    endloop
  endfacet
  facet normal -0.000000e+00 0.000000e+00 -1.000000e+00
    outer loop
      vertex   7.500000e+00 3.500000e+00 0.000000e+00
      vertex   0.000000e+00 7.500000e-01 0.000000e+00
      vertex   0.000000e+00 3.500000e+00 0.000000e+00
    endloop
  endfacet
  facet normal 1.000000e+00 -0.000000e+00 0.000000e+00
    outer loop
      vertex   7.500000e+00 7.500000e-01 7.500000e+00
      vertex   7.500000e+00 7.500000e-01 0.000000e+00
      vertex   7.500000e+00 3.500000e+00 7.500000e+00
    endloop
  endfacet
  facet normal 1.000000e+00 0.000000e+00 0.000000e+00
    outer loop
      vertex   7.500000e+00 3.500000e+00 7.500000e+00
      vertex   7.500000e+00 7.500000e-01 0.000000e+00
      vertex   7.500000e+00 3.500000e+00 0.000000e+00
    endloop
  endfacet
  facet normal 0.000000e+00 1.000000e+00 0.000000e+00
    outer loop
      vertex   5.550000e+00 1.500000e+00 4.750000e+00
      vertex   5.550000e+00 1.500000e+00 2.750000e+00
      vertex   1.950000e+00 1.500000e+00 4.750000e+00
    endloop
  endfacet
  facet normal 0.000000e+00 1.000000e+00 0.000000e+00
    outer loop
      vertex   1.950000e+00 1.500000e+00 4.750000e+00
      vertex   5.550000e+00 1.500000e+00 2.750000e+00
      vertex   1.950000e+00 1.500000e+00 2.750000e+00
    endloop
  endfacet
endsolid
